<svg id="Слой_1" data-name="Слой 1" xmlns="http://www.w3.org/2000/svg" viewBox="0 0 201 43"><defs><style>.cls-1{fill:#234089;stroke:#204288;stroke-miterlimit:10;stroke-width:0.5px;}.cls-2{font-size:18px;fill:#292929;font-family:Montserrat-Bold, Montserrat;font-weight:700;}.cls-3{letter-spacing:-0.05em;}.cls-4{letter-spacing:0.01em;}.cls-5{letter-spacing:-0.02em;}.cls-6{letter-spacing:-0.01em;}.cls-7{letter-spacing:0em;}.cls-8{letter-spacing:-0.01em;}</style></defs><title>Монтажная область 1</title><path class="cls-1" d="M33.47,10.57a1.63,1.63,0,0,0-1.54-.44,4,4,0,0,1-1.81,0l-6.2-1.42a9.12,9.12,0,0,1-.9-.23L17.9,7l.51-2.26a1.21,1.21,0,0,0-.92-1.47l-4.57-1a1.24,1.24,0,0,0-1.48.93L9.25,12.77a1.24,1.24,0,0,0,.93,1.48l.86.2a1.26,1.26,0,0,0,0,.27v8a.94.94,0,0,0,.05.3L9.74,25.65a1.38,1.38,0,0,0-.15.62V27a1,1,0,0,0,.16.53l-.51.69a1.51,1.51,0,0,0-.07,1.72l5.63,9.12a1.62,1.62,0,0,0,1.39.78h8.9a.55.55,0,0,0,.55-.55.55.55,0,0,0-.55-.55h-8.9a.54.54,0,0,1-.45-.26l-4.82-7.81,13.7,2.87,7.14,4.14v.71a.35.35,0,0,1-.35.35H27.76a.54.54,0,0,0-.55.55.55.55,0,0,0,.55.55h3.65a1.45,1.45,0,0,0,1.45-1.45V18.9a1.63,1.63,0,0,0-1.27-1.59L20.45,14.72a1.64,1.64,0,0,0-1.68.62l-3.55,4.79a.55.55,0,1,0,.89.65L19.65,16a.53.53,0,0,1,.55-.2l.62.14,3.3,16.36-14-2.93,0,0a.44.44,0,0,1,0-.48l.7-.94h3.74A1,1,0,0,0,15.5,27v-.72a1.53,1.53,0,0,0-.15-.62L14,23.06a.94.94,0,0,0,.05-.3V15.14l.66.15a1,1,0,0,0,.28,0,1.3,1.3,0,0,0,.66-.19,1.25,1.25,0,0,0,.54-.77l.52-2.27L22,13l.91.19,6.2,1.41a4.13,4.13,0,0,1,1.63.79,1.65,1.65,0,0,0,1,.37,1.78,1.78,0,0,0,.55-.1,1.66,1.66,0,0,0,1.06-1.19l.54-2.37a1.64,1.64,0,0,0-.44-1.53ZM22,16.22l9.35,2.17a.52.52,0,0,1,.41.51V36.4l-6.44-3.75Zm-9.9,6.31V15H13v7.57Zm2.29,3.74v.56h-3.7v-.56a.2.2,0,0,1,0-.11L12,23.63h1.08l1.29,2.53a.36.36,0,0,1,0,.11ZM32.84,11.86l-.54,2.37a.56.56,0,0,1-.36.39.54.54,0,0,1-.52-.09,5.18,5.18,0,0,0-2.07-1l-6.21-1.42c-.32-.07-.64-.14-1-.19L17,11l.11-.47a.55.55,0,0,0-.41-.66.54.54,0,0,0-.66.41l-.87,3.81a.13.13,0,0,1-.06.08.11.11,0,0,1-.1,0l-4.57-1a.17.17,0,0,1-.08-.06.16.16,0,0,1,0-.1l2.19-9.61a.12.12,0,0,1,.06-.09.13.13,0,0,1,.09,0l4.57,1a.14.14,0,0,1,.1.16L16.6,7.77a.55.55,0,0,0,.41.66.56.56,0,0,0,.64-.34l5.06,1.45c.32.09.64.18,1,.25l6.21,1.42a5.1,5.1,0,0,0,2.3,0,.53.53,0,0,1,.51.15.55.55,0,0,1,.15.51Z"/><text class="cls-2" transform="translate(58.59 16.56)"><tspan class="cls-3">Г</tspan><tspan class="cls-4" x="9.7" y="0">р</tspan><tspan x="22.43" y="0">анит </tspan><tspan class="cls-5" x="73.29" y="0">С</tspan><tspan x="86.09" y="0">трой </tspan><tspan class="cls-6" x="6.08" y="20">Р</tspan><tspan x="18.92" y="20">е</tspan><tspan class="cls-7" x="30.49" y="20">с</tspan><tspan x="41.11" y="20">тав</tspan><tspan class="cls-8" x="72.81" y="20">р</tspan><tspan x="85.14" y="20">ация</tspan></text></svg>